<?xml version="1.0" encoding="UTF-8"?>
<svg id="Layer_2" data-name="Layer 2" xmlns="http://www.w3.org/2000/svg" viewBox="0 0 12.01 11">
  <defs>
    <style>
      .cls-1 {
        fill: red;
      }
    </style>
  </defs>
  <g id="Layer_1-2" data-name="Layer 1">
    <path class="cls-1" d="M11.82,.22c-.17-.23-.49-.29-.72-.12-.05,.03-.09,.08-.12,.12l-3.5,4.37-3.68,4.6L1.02,5.74c-.17-.23-.49-.29-.72-.12-.05,.03-.09,.08-.12,.12-.23,.31-.23,.74,0,1.06l3.19,3.98c.17,.23,.49,.29,.72,.12,.05-.03,.09-.08,.12-.12L11.82,1.28c.34-.72,.14-.86,0-1.06Z"/>
  </g>
</svg>